# xmcd CD database file
# Copyright (C) 1993-1997  Ti Kan
#
# Track frame offsets:
#	150
#	12417
#	24102
#	37272
#	51207
#	63652
#	74427
#	84112
#	97452
#	108950
#	122307
#	135490
#	148275
#	160752
#	183282
#	208767
#	212702
#	214910
#	232720
#	249717
#
# Disc length: 3590 seconds
#
# Revision: 1
# Processed by: cddbd v1.4b41PL1 Copyright (c) Steve Scherf et al.
# Submitted via: xmcd 2.1 PL1
#
DISCID=210e0414
DTITLE=Howlin' Wolf - Ain't gonna be your dog  -  Disc 2
DYEAR=1900
DGENRE=
TTITLE0=My Baby Told Me (Alternative Take)
TTITLE1=Midnight Blues (Alternative To "Moaning For My Baby")
TTITLE2=You Can't Put Me Out
TTITLE3=Getting Late
TTITLE4=Wolf In The Mood
TTITLE5=My People's Gone
TTITLE6=Mama's Baby
TTITLE7=Tail Dragger (Alternative Take)
TTITLE8=Long Green Stuff
TTITLE9=Joy To My Soul
TTITLE10=Poor Wind That Never Change
TTITLE11=Pop It To Me
TTITLE12=I Had A Dream
TTITLE13=The Big House
TTITLE14=Tired Of Crying
TTITLE15=Rollin' and Tumblin' (Acoustic Fragment)
TTITLE16=More Howlin' Wolf Talks
TTITLE17=I Ain't Gonna Be Your Dog No More (Acoustic)
TTITLE18=Woke Up This Morning (Acoustic)
TTITLE19=Aint''t Going Down That Dirt Road (2nd Acoustic Version)
EXTD=
EXTT0=
EXTT1=
EXTT2=
EXTT3=
EXTT4=
EXTT5=
EXTT6=
EXTT7=
EXTT8=
EXTT9=
EXTT10=
EXTT11=
EXTT12=
EXTT13=
EXTT14=
EXTT15=
EXTT16=
EXTT17=
EXTT18=
EXTT19=
PLAYORDER=
